<?xml version="1.0" encoding="UTF-8"?>
<!DOCTYPE svg PUBLIC "-//W3C//DTD SVG 1.1//EN" "http://www.w3.org/Graphics/SVG/1.1/DTD/svg11.dtd">
<!-- Creator: CorelDRAW -->
<svg xmlns="http://www.w3.org/2000/svg" xml:space="preserve" width="0.166665in" height="0.166665in" version="1.1" style="shape-rendering:geometricPrecision; text-rendering:geometricPrecision; image-rendering:optimizeQuality; fill-rule:evenodd; clip-rule:evenodd"
viewBox="0 0 6.29 6.29"
 xmlns:xlink="http://www.w3.org/1999/xlink"
 xmlns:xodm="http://www.corel.com/coreldraw/odm/2003">
 <defs>
  <style type="text/css">
   <![CDATA[
    .fil0 {fill:#FF5945;fill-rule:nonzero}
   ]]>
  </style>
 </defs>
 <g id="Layer_x0020_1">
  <metadata id="CorelCorpID_0Corel-Layer"/>
  <path id="check-circle-fill.svg" class="fil0" d="M6.29 3.14c0,1.74 -1.41,3.14 -3.14,3.14 -1.74,0 -3.14,-1.41 -3.14,-3.14 0,-1.74 1.41,-3.14 3.14,-3.14 1.74,0 3.14,1.41 3.14,3.14zm-1.56 -1.19c-0.06,-0.05 -0.13,-0.09 -0.21,-0.09 -0.08,0 -0.16,0.03 -0.22,0.09l-1.37 1.74 -0.82 -0.82c-0.05,-0.05 -0.13,-0.08 -0.2,-0.08 -0.16,0 -0.29,0.13 -0.29,0.29 0,0.07 0.03,0.15 0.08,0.2l1.04 1.04c0.06,0.05 0.13,0.09 0.21,0.09 0.08,0 0.16,-0.03 0.22,-0.09l1.57 -1.96c0.05,-0.05 0.08,-0.13 0.08,-0.2 0,-0.08 -0.03,-0.15 -0.09,-0.21l-0 -0z"/>
 </g>
</svg>
